<mxfile host="Electron" agent="Mozilla/5.0 (X11; Linux x86_64) AppleWebKit/537.36 (KHTML, like Gecko) draw.io/26.1.1 Chrome/132.0.6834.210 Electron/34.3.3 Safari/537.36" version="26.1.1">
  <diagram name="Page-1" id="B1Nvvr8pB9oU6klDRj4G">
    <mxGraphModel dx="989" dy="579" grid="1" gridSize="10" guides="1" tooltips="1" connect="1" arrows="1" fold="1" page="1" pageScale="1" pageWidth="650" pageHeight="600" math="0" shadow="0">
      <root>
        <mxCell id="0" />
        <mxCell id="1" parent="0" />
        <mxCell id="Yi9TPu3OMjOgvJ-eCJma-2" value="&amp;nbsp;128-bit&lt;div&gt;Magnitude&amp;nbsp;&lt;/div&gt;&lt;div&gt;Comparator&lt;/div&gt;" style="whiteSpace=wrap;html=1;aspect=fixed;" parent="1" vertex="1">
          <mxGeometry x="135" y="100" width="140" height="140" as="geometry" />
        </mxCell>
        <mxCell id="Yi9TPu3OMjOgvJ-eCJma-3" value="" style="endArrow=none;html=1;rounded=0;entryX=0;entryY=0.25;entryDx=0;entryDy=0;" parent="1" target="Yi9TPu3OMjOgvJ-eCJma-2" edge="1">
          <mxGeometry width="50" height="50" relative="1" as="geometry">
            <mxPoint x="45" y="135" as="sourcePoint" />
            <mxPoint x="95" y="105" as="targetPoint" />
          </mxGeometry>
        </mxCell>
        <mxCell id="Yi9TPu3OMjOgvJ-eCJma-20" value="128" style="edgeLabel;html=1;align=center;verticalAlign=middle;resizable=0;points=[];" parent="Yi9TPu3OMjOgvJ-eCJma-3" vertex="1" connectable="0">
          <mxGeometry x="-0.146" relative="1" as="geometry">
            <mxPoint as="offset" />
          </mxGeometry>
        </mxCell>
        <mxCell id="Yi9TPu3OMjOgvJ-eCJma-4" value="A" style="text;html=1;align=center;verticalAlign=middle;resizable=0;points=[];autosize=1;strokeColor=none;fillColor=none;" parent="1" vertex="1">
          <mxGeometry x="125" y="120" width="30" height="30" as="geometry" />
        </mxCell>
        <mxCell id="Yi9TPu3OMjOgvJ-eCJma-5" value="" style="endArrow=none;html=1;rounded=0;entryX=0;entryY=0.25;entryDx=0;entryDy=0;" parent="1" edge="1">
          <mxGeometry width="50" height="50" relative="1" as="geometry">
            <mxPoint x="45" y="200" as="sourcePoint" />
            <mxPoint x="135" y="200" as="targetPoint" />
          </mxGeometry>
        </mxCell>
        <mxCell id="Yi9TPu3OMjOgvJ-eCJma-14" value="128" style="edgeLabel;html=1;align=center;verticalAlign=middle;resizable=0;points=[];" parent="Yi9TPu3OMjOgvJ-eCJma-5" vertex="1" connectable="0">
          <mxGeometry x="0.182" relative="1" as="geometry">
            <mxPoint as="offset" />
          </mxGeometry>
        </mxCell>
        <mxCell id="Yi9TPu3OMjOgvJ-eCJma-6" value="B" style="text;html=1;align=center;verticalAlign=middle;resizable=0;points=[];autosize=1;strokeColor=none;fillColor=none;" parent="1" vertex="1">
          <mxGeometry x="125" y="185" width="30" height="30" as="geometry" />
        </mxCell>
        <mxCell id="Yi9TPu3OMjOgvJ-eCJma-7" value="" style="edgeStyle=segmentEdgeStyle;endArrow=none;html=1;curved=0;rounded=0;endSize=8;startSize=8;sourcePerimeterSpacing=0;targetPerimeterSpacing=0;entryX=0.5;entryY=1;entryDx=0;entryDy=0;startFill=0;" parent="1" target="Yi9TPu3OMjOgvJ-eCJma-12" edge="1">
          <mxGeometry width="100" relative="1" as="geometry">
            <mxPoint x="75" y="200" as="sourcePoint" />
            <mxPoint x="435" y="280" as="targetPoint" />
            <Array as="points">
              <mxPoint x="75" y="280" />
              <mxPoint x="430" y="280" />
            </Array>
          </mxGeometry>
        </mxCell>
        <mxCell id="Yi9TPu3OMjOgvJ-eCJma-15" value="128" style="edgeLabel;html=1;align=center;verticalAlign=middle;resizable=0;points=[];" parent="Yi9TPu3OMjOgvJ-eCJma-7" vertex="1" connectable="0">
          <mxGeometry x="0.1082" y="-2" relative="1" as="geometry">
            <mxPoint as="offset" />
          </mxGeometry>
        </mxCell>
        <mxCell id="Yi9TPu3OMjOgvJ-eCJma-9" value="" style="endArrow=none;html=1;rounded=0;entryX=0;entryY=0.25;entryDx=0;entryDy=0;" parent="1" edge="1">
          <mxGeometry width="50" height="50" relative="1" as="geometry">
            <mxPoint x="275" y="134.76" as="sourcePoint" />
            <mxPoint x="365" y="134.76" as="targetPoint" />
          </mxGeometry>
        </mxCell>
        <mxCell id="Yi9TPu3OMjOgvJ-eCJma-16" value="1" style="edgeLabel;html=1;align=center;verticalAlign=middle;resizable=0;points=[];" parent="Yi9TPu3OMjOgvJ-eCJma-9" vertex="1" connectable="0">
          <mxGeometry x="-0.1884" y="1" relative="1" as="geometry">
            <mxPoint x="3" y="1" as="offset" />
          </mxGeometry>
        </mxCell>
        <mxCell id="Yi9TPu3OMjOgvJ-eCJma-10" value="" style="endArrow=none;html=1;rounded=0;entryX=0;entryY=0.25;entryDx=0;entryDy=0;" parent="1" edge="1">
          <mxGeometry width="50" height="50" relative="1" as="geometry">
            <mxPoint x="275" y="169.76" as="sourcePoint" />
            <mxPoint x="365" y="169.76" as="targetPoint" />
          </mxGeometry>
        </mxCell>
        <mxCell id="Yi9TPu3OMjOgvJ-eCJma-17" value="1" style="edgeLabel;html=1;align=center;verticalAlign=middle;resizable=0;points=[];" parent="Yi9TPu3OMjOgvJ-eCJma-10" vertex="1" connectable="0">
          <mxGeometry x="-0.019" relative="1" as="geometry">
            <mxPoint x="-4" as="offset" />
          </mxGeometry>
        </mxCell>
        <mxCell id="Yi9TPu3OMjOgvJ-eCJma-11" value="" style="endArrow=none;html=1;rounded=0;entryX=0;entryY=0.25;entryDx=0;entryDy=0;" parent="1" edge="1">
          <mxGeometry width="50" height="50" relative="1" as="geometry">
            <mxPoint x="275" y="204.76" as="sourcePoint" />
            <mxPoint x="365" y="204.76" as="targetPoint" />
          </mxGeometry>
        </mxCell>
        <mxCell id="Yi9TPu3OMjOgvJ-eCJma-19" value="1" style="edgeLabel;html=1;align=center;verticalAlign=middle;resizable=0;points=[];" parent="Yi9TPu3OMjOgvJ-eCJma-11" vertex="1" connectable="0">
          <mxGeometry x="-0.0931" relative="1" as="geometry">
            <mxPoint as="offset" />
          </mxGeometry>
        </mxCell>
        <mxCell id="Yi9TPu3OMjOgvJ-eCJma-12" value="Router" style="whiteSpace=wrap;html=1;aspect=fixed;" parent="1" vertex="1">
          <mxGeometry x="360" y="100" width="140" height="140" as="geometry" />
        </mxCell>
        <mxCell id="Yi9TPu3OMjOgvJ-eCJma-21" value="A&amp;gt;B" style="text;html=1;align=center;verticalAlign=middle;resizable=0;points=[];autosize=1;strokeColor=none;fillColor=none;" parent="1" vertex="1">
          <mxGeometry x="235" y="120" width="50" height="30" as="geometry" />
        </mxCell>
        <mxCell id="Yi9TPu3OMjOgvJ-eCJma-22" value="A=&lt;span style=&quot;background-color: transparent; color: light-dark(rgb(0, 0, 0), rgb(255, 255, 255));&quot;&gt;B&lt;/span&gt;" style="text;html=1;align=center;verticalAlign=middle;resizable=0;points=[];autosize=1;strokeColor=none;fillColor=none;" parent="1" vertex="1">
          <mxGeometry x="235" y="155" width="50" height="30" as="geometry" />
        </mxCell>
        <mxCell id="Yi9TPu3OMjOgvJ-eCJma-24" value="A&amp;lt;B" style="text;html=1;align=center;verticalAlign=middle;resizable=0;points=[];autosize=1;strokeColor=none;fillColor=none;" parent="1" vertex="1">
          <mxGeometry x="235" y="190" width="50" height="30" as="geometry" />
        </mxCell>
        <mxCell id="Yi9TPu3OMjOgvJ-eCJma-25" value="A&amp;gt;B" style="text;html=1;align=center;verticalAlign=middle;resizable=0;points=[];autosize=1;strokeColor=none;fillColor=none;" parent="1" vertex="1">
          <mxGeometry x="355" y="120" width="50" height="30" as="geometry" />
        </mxCell>
        <mxCell id="Yi9TPu3OMjOgvJ-eCJma-26" value="A=&lt;span style=&quot;background-color: transparent; color: light-dark(rgb(0, 0, 0), rgb(255, 255, 255));&quot;&gt;B&lt;/span&gt;" style="text;html=1;align=center;verticalAlign=middle;resizable=0;points=[];autosize=1;strokeColor=none;fillColor=none;" parent="1" vertex="1">
          <mxGeometry x="355" y="155" width="50" height="30" as="geometry" />
        </mxCell>
        <mxCell id="Yi9TPu3OMjOgvJ-eCJma-27" value="A&amp;lt;B" style="text;html=1;align=center;verticalAlign=middle;resizable=0;points=[];autosize=1;strokeColor=none;fillColor=none;" parent="1" vertex="1">
          <mxGeometry x="355" y="190" width="50" height="30" as="geometry" />
        </mxCell>
        <mxCell id="Yi9TPu3OMjOgvJ-eCJma-28" value="Addr" style="text;html=1;align=center;verticalAlign=middle;resizable=0;points=[];autosize=1;strokeColor=none;fillColor=none;" parent="1" vertex="1">
          <mxGeometry x="405" y="215" width="50" height="30" as="geometry" />
        </mxCell>
        <mxCell id="Yi9TPu3OMjOgvJ-eCJma-29" value="" style="endArrow=none;html=1;rounded=0;entryX=0;entryY=0.25;entryDx=0;entryDy=0;" parent="1" edge="1">
          <mxGeometry width="50" height="50" relative="1" as="geometry">
            <mxPoint x="500" y="134.76" as="sourcePoint" />
            <mxPoint x="590" y="134.76" as="targetPoint" />
          </mxGeometry>
        </mxCell>
        <mxCell id="Yi9TPu3OMjOgvJ-eCJma-30" value="128" style="edgeLabel;html=1;align=center;verticalAlign=middle;resizable=0;points=[];" parent="Yi9TPu3OMjOgvJ-eCJma-29" vertex="1" connectable="0">
          <mxGeometry x="-0.1884" y="1" relative="1" as="geometry">
            <mxPoint x="8" y="1" as="offset" />
          </mxGeometry>
        </mxCell>
        <mxCell id="Yi9TPu3OMjOgvJ-eCJma-31" value="128" style="endArrow=none;html=1;rounded=0;entryX=0;entryY=0.25;entryDx=0;entryDy=0;" parent="1" edge="1">
          <mxGeometry width="50" height="50" relative="1" as="geometry">
            <mxPoint x="500" y="169.76" as="sourcePoint" />
            <mxPoint x="590" y="169.76" as="targetPoint" />
          </mxGeometry>
        </mxCell>
        <mxCell id="Yi9TPu3OMjOgvJ-eCJma-32" value="1" style="edgeLabel;html=1;align=center;verticalAlign=middle;resizable=0;points=[];" parent="Yi9TPu3OMjOgvJ-eCJma-31" vertex="1" connectable="0">
          <mxGeometry x="-0.1884" y="1" relative="1" as="geometry">
            <mxPoint x="3" y="1" as="offset" />
          </mxGeometry>
        </mxCell>
        <mxCell id="Yi9TPu3OMjOgvJ-eCJma-33" value="" style="endArrow=none;html=1;rounded=0;entryX=0;entryY=0.25;entryDx=0;entryDy=0;" parent="1" edge="1">
          <mxGeometry width="50" height="50" relative="1" as="geometry">
            <mxPoint x="500" y="204.76" as="sourcePoint" />
            <mxPoint x="590" y="204.76" as="targetPoint" />
          </mxGeometry>
        </mxCell>
        <mxCell id="Yi9TPu3OMjOgvJ-eCJma-34" value="128" style="edgeLabel;html=1;align=center;verticalAlign=middle;resizable=0;points=[];" parent="Yi9TPu3OMjOgvJ-eCJma-33" vertex="1" connectable="0">
          <mxGeometry x="-0.1884" y="1" relative="1" as="geometry">
            <mxPoint x="8" y="1" as="offset" />
          </mxGeometry>
        </mxCell>
        <mxCell id="Yi9TPu3OMjOgvJ-eCJma-35" value="L" style="text;html=1;align=center;verticalAlign=middle;resizable=0;points=[];autosize=1;strokeColor=none;fillColor=none;" parent="1" vertex="1">
          <mxGeometry x="470" y="120" width="30" height="30" as="geometry" />
        </mxCell>
        <mxCell id="Yi9TPu3OMjOgvJ-eCJma-36" value="D" style="text;html=1;align=center;verticalAlign=middle;resizable=0;points=[];autosize=1;strokeColor=none;fillColor=none;" parent="1" vertex="1">
          <mxGeometry x="470" y="155" width="30" height="30" as="geometry" />
        </mxCell>
        <mxCell id="Yi9TPu3OMjOgvJ-eCJma-37" value="R" style="text;html=1;align=center;verticalAlign=middle;resizable=0;points=[];autosize=1;strokeColor=none;fillColor=none;" parent="1" vertex="1">
          <mxGeometry x="470" y="190" width="30" height="30" as="geometry" />
        </mxCell>
        <mxCell id="Yi9TPu3OMjOgvJ-eCJma-38" value="Y" style="text;html=1;align=center;verticalAlign=middle;resizable=0;points=[];autosize=1;strokeColor=none;fillColor=none;" parent="1" vertex="1">
          <mxGeometry x="20" y="185" width="30" height="30" as="geometry" />
        </mxCell>
        <mxCell id="Yi9TPu3OMjOgvJ-eCJma-39" value="X" style="text;html=1;align=center;verticalAlign=middle;resizable=0;points=[];autosize=1;strokeColor=none;fillColor=none;" parent="1" vertex="1">
          <mxGeometry x="20" y="120" width="30" height="30" as="geometry" />
        </mxCell>
        <mxCell id="Yi9TPu3OMjOgvJ-eCJma-40" value="More to add...." style="text;html=1;align=center;verticalAlign=middle;resizable=0;points=[];autosize=1;strokeColor=none;fillColor=none;" parent="1" vertex="1">
          <mxGeometry x="455" y="360" width="100" height="30" as="geometry" />
        </mxCell>
      </root>
    </mxGraphModel>
  </diagram>
</mxfile>
